<svg xmlns="http://www.w3.org/2000/svg" xmlns:xlink="http://www.w3.org/1999/xlink" contentStyleType="text/css" data-diagram-type="ACTIVITY" height="718px" preserveAspectRatio="none" style="width:431px;height:718px;background:#FFFFFF;" version="1.1" viewBox="0 0 431 718" width="431px" zoomAndPan="magnify"><title>User Interaction Flow: Besuch hinzuf&#252;gen</title><defs/><g><text fill="#000000" font-family="sans-serif" font-size="14" font-weight="bold" lengthAdjust="spacing" textLength="291.6049" x="68.6103" y="34.9659">User Interaction Flow: Besuch hinzuf&#252;gen</text><ellipse cx="191.0371" cy="60.0679" fill="#222222" rx="10" ry="10" style="stroke:#222222;stroke-width:1;"/><rect fill="#F1F1F1" height="36.3441" rx="12.5" ry="12.5" style="stroke:#181818;stroke-width:0.5;" width="125.1808" x="128.4467" y="90.0679"/><text fill="#000000" font-family="sans-serif" font-size="12" lengthAdjust="spacing" textLength="105.1808" x="138.4467" y="112.896">User klickt + Knopf</text><rect fill="#F1F1F1" height="36.3441" rx="12.5" ry="12.5" style="stroke:#181818;stroke-width:0.5;" width="199.0293" x="91.5224" y="146.412"/><text fill="#000000" font-family="sans-serif" font-size="12" lengthAdjust="spacing" textLength="179.0293" x="101.5224" y="169.2401">Besuch hinzuf&#252;gen Seite &#246;ffnen</text><path d="M262.1433,207.0752 L262.1433,216.9282 L242.1433,220.9282 L262.1433,224.9282 L262.1433,234.7812 A0,0 0 0 0 262.1433,234.7812 L419.8255,234.7812 A0,0 0 0 0 419.8255,234.7812 L419.8255,217.0752 L409.8255,207.0752 L262.1433,207.0752 A0,0 0 0 0 262.1433,207.0752" fill="#FEFFDD" style="stroke:#181818;stroke-width:0.5;"/><path d="M409.8255,207.0752 L409.8255,217.0752 L419.8255,217.0752 L409.8255,207.0752" fill="#FEFFDD" style="stroke:#181818;stroke-width:0.5;"/><text fill="#000000" font-family="sans-serif" font-size="13" lengthAdjust="spacing" textLength="136.6821" x="268.1433" y="225.9722">Autocomplete beginnt</text><rect fill="#F1F1F1" height="36.3441" rx="12.5" ry="12.5" style="stroke:#181818;stroke-width:0.5;" width="102.2126" x="139.9308" y="202.7561"/><text fill="#000000" font-family="sans-serif" font-size="12" lengthAdjust="spacing" textLength="82.2126" x="149.9308" y="225.5842">Input: Filmtitel</text><polygon fill="#F1F1F1" points="162.5473,259.1003,219.5269,259.1003,231.5269,271.1003,219.5269,283.1003,162.5473,283.1003,150.5473,271.1003,162.5473,259.1003" style="stroke:#181818;stroke-width:0.5;"/><text fill="#000000" font-family="sans-serif" font-size="11" lengthAdjust="spacing" textLength="56.9796" x="162.5473" y="275.3682">Film in DB?</text><text fill="#000000" font-family="sans-serif" font-size="11" lengthAdjust="spacing" textLength="9.0089" x="141.5383" y="267.8773">ja</text><text fill="#000000" font-family="sans-serif" font-size="11" lengthAdjust="spacing" textLength="22.6378" x="231.5269" y="267.8773">nein</text><rect fill="#F1F1F1" height="36.3441" rx="12.5" ry="12.5" style="stroke:#181818;stroke-width:0.5;" width="120.8487" x="35.5942" y="293.1003"/><text fill="#000000" font-family="sans-serif" font-size="12" lengthAdjust="spacing" textLength="100.8487" x="45.5942" y="315.9283">Film aus DB laden</text><rect fill="#F1F1F1" height="52.6882" rx="12.5" ry="12.5" style="stroke:#181818;stroke-width:0.5;" width="170.0371" x="11" y="349.4444"/><text fill="#000000" font-family="sans-serif" font-size="12" lengthAdjust="spacing" textLength="116.8568" x="21" y="372.2725">Plattform='local' und</text><text fill="#000000" font-family="sans-serif" font-size="12" lengthAdjust="spacing" textLength="150.0371" x="21" y="388.6166">Film-ID zwischenspeichern</text><rect fill="#F1F1F1" height="36.3441" rx="12.5" ry="12.5" style="stroke:#181818;stroke-width:0.5;" width="159.849" x="206.1311" y="293.1003"/><text fill="#000000" font-family="sans-serif" font-size="12" lengthAdjust="spacing" textLength="139.849" x="216.1311" y="315.9283">Film in TMDb API suchen</text><rect fill="#F1F1F1" height="52.6882" rx="12.5" ry="12.5" style="stroke:#181818;stroke-width:0.5;" width="170.0371" x="201.0371" y="349.4444"/><text fill="#000000" font-family="sans-serif" font-size="12" lengthAdjust="spacing" textLength="121.2248" x="211.0371" y="372.2725">Plattform='tmdb' und</text><text fill="#000000" font-family="sans-serif" font-size="12" lengthAdjust="spacing" textLength="150.0371" x="211.0371" y="388.6166">Film-ID zwischenspeichern</text><polygon fill="#F1F1F1" points="191.0371,408.1326,203.0371,420.1326,191.0371,432.1326,179.0371,420.1326,191.0371,408.1326" style="stroke:#181818;stroke-width:0.5;"/><polygon fill="#F1F1F1" points="151.8333,452.1326,230.2408,452.1326,242.2408,464.1326,230.2408,476.1326,151.8333,476.1326,139.8333,464.1326,151.8333,452.1326" style="stroke:#181818;stroke-width:0.5;"/><text fill="#000000" font-family="sans-serif" font-size="11" lengthAdjust="spacing" textLength="78.4075" x="151.8333" y="468.4006">Bild URL in DB?</text><text fill="#000000" font-family="sans-serif" font-size="11" lengthAdjust="spacing" textLength="9.0089" x="130.8244" y="460.9096">ja</text><text fill="#000000" font-family="sans-serif" font-size="11" lengthAdjust="spacing" textLength="22.6378" x="242.2408" y="460.9096">nein</text><rect fill="#F1F1F1" height="36.3441" rx="12.5" ry="12.5" style="stroke:#181818;stroke-width:0.5;" width="144.2249" x="27.0621" y="486.1326"/><text fill="#000000" font-family="sans-serif" font-size="12" lengthAdjust="spacing" textLength="124.2249" x="37.0621" y="508.9607">Bild URL aus DB laden</text><rect fill="#F1F1F1" height="36.3441" rx="12.5" ry="12.5" style="stroke:#181818;stroke-width:0.5;" width="183.2251" x="191.287" y="486.1326"/><text fill="#000000" font-family="sans-serif" font-size="12" lengthAdjust="spacing" textLength="163.2251" x="201.287" y="508.9607">Bild URL in TMDb API suchen</text><rect fill="#F1F1F1" height="36.3441" rx="12.5" ry="12.5" style="stroke:#181818;stroke-width:0.5;" width="158.757" x="203.5211" y="542.4767"/><text fill="#000000" font-family="sans-serif" font-size="12" lengthAdjust="spacing" textLength="138.757" x="213.5211" y="565.3048">Bild URL in DB speichern</text><polygon fill="#F1F1F1" points="191.0371,584.8208,203.0371,596.8208,191.0371,608.8208,179.0371,596.8208,191.0371,584.8208" style="stroke:#181818;stroke-width:0.5;"/><rect fill="#F1F1F1" height="36.3441" rx="12.5" ry="12.5" style="stroke:#181818;stroke-width:0.5;" width="198.9932" x="91.5404" y="628.8208"/><text fill="#000000" font-family="sans-serif" font-size="12" lengthAdjust="spacing" textLength="178.9932" x="101.5404" y="651.6489">Besuch hinzuf&#252;gen abschlie&#223;en</text><ellipse cx="191.0371" cy="696.1649" fill="none" rx="11" ry="11" style="stroke:#222222;stroke-width:1;"/><ellipse cx="191.0371" cy="696.1649" fill="#222222" rx="6" ry="6" style="stroke:#222222;stroke-width:1;"/><line style="stroke:#181818;stroke-width:1;" x1="191.0371" x2="191.0371" y1="70.0679" y2="90.0679"/><polygon fill="#181818" points="187.0371,80.0679,191.0371,90.0679,195.0371,80.0679,191.0371,84.0679" style="stroke:#181818;stroke-width:1;"/><line style="stroke:#181818;stroke-width:1;" x1="191.0371" x2="191.0371" y1="126.412" y2="146.412"/><polygon fill="#181818" points="187.0371,136.412,191.0371,146.412,195.0371,136.412,191.0371,140.412" style="stroke:#181818;stroke-width:1;"/><line style="stroke:#181818;stroke-width:1;" x1="191.0371" x2="191.0371" y1="182.7561" y2="202.7561"/><polygon fill="#181818" points="187.0371,192.7561,191.0371,202.7561,195.0371,192.7561,191.0371,196.7561" style="stroke:#181818;stroke-width:1;"/><line style="stroke:#181818;stroke-width:1;" x1="96.0185" x2="96.0185" y1="329.4444" y2="349.4444"/><polygon fill="#181818" points="92.0185,339.4444,96.0185,349.4444,100.0185,339.4444,96.0185,343.4444" style="stroke:#181818;stroke-width:1;"/><line style="stroke:#181818;stroke-width:1;" x1="286.0556" x2="286.0556" y1="329.4444" y2="349.4444"/><polygon fill="#181818" points="282.0556,339.4444,286.0556,349.4444,290.0556,339.4444,286.0556,343.4444" style="stroke:#181818;stroke-width:1;"/><line style="stroke:#181818;stroke-width:1;" x1="150.5473" x2="96.0185" y1="271.1003" y2="271.1003"/><line style="stroke:#181818;stroke-width:1;" x1="96.0185" x2="96.0185" y1="271.1003" y2="293.1003"/><polygon fill="#181818" points="92.0185,283.1003,96.0185,293.1003,100.0185,283.1003,96.0185,287.1003" style="stroke:#181818;stroke-width:1;"/><line style="stroke:#181818;stroke-width:1;" x1="231.5269" x2="286.0556" y1="271.1003" y2="271.1003"/><line style="stroke:#181818;stroke-width:1;" x1="286.0556" x2="286.0556" y1="271.1003" y2="293.1003"/><polygon fill="#181818" points="282.0556,283.1003,286.0556,293.1003,290.0556,283.1003,286.0556,287.1003" style="stroke:#181818;stroke-width:1;"/><line style="stroke:#181818;stroke-width:1;" x1="96.0185" x2="96.0185" y1="402.1326" y2="420.1326"/><line style="stroke:#181818;stroke-width:1;" x1="96.0185" x2="179.0371" y1="420.1326" y2="420.1326"/><polygon fill="#181818" points="169.0371,416.1326,179.0371,420.1326,169.0371,424.1326,173.0371,420.1326" style="stroke:#181818;stroke-width:1;"/><line style="stroke:#181818;stroke-width:1;" x1="286.0556" x2="286.0556" y1="402.1326" y2="420.1326"/><line style="stroke:#181818;stroke-width:1;" x1="286.0556" x2="203.0371" y1="420.1326" y2="420.1326"/><polygon fill="#181818" points="213.0371,416.1326,203.0371,420.1326,213.0371,424.1326,209.0371,420.1326" style="stroke:#181818;stroke-width:1;"/><line style="stroke:#181818;stroke-width:1;" x1="191.0371" x2="191.0371" y1="239.1003" y2="259.1003"/><polygon fill="#181818" points="187.0371,249.1003,191.0371,259.1003,195.0371,249.1003,191.0371,253.1003" style="stroke:#181818;stroke-width:1;"/><line style="stroke:#181818;stroke-width:1;" x1="282.8996" x2="282.8996" y1="522.4767" y2="542.4767"/><polygon fill="#181818" points="278.8996,532.4767,282.8996,542.4767,286.8996,532.4767,282.8996,536.4767" style="stroke:#181818;stroke-width:1;"/><line style="stroke:#181818;stroke-width:1;" x1="139.8333" x2="99.1746" y1="464.1326" y2="464.1326"/><line style="stroke:#181818;stroke-width:1;" x1="99.1746" x2="99.1746" y1="464.1326" y2="486.1326"/><polygon fill="#181818" points="95.1746,476.1326,99.1746,486.1326,103.1746,476.1326,99.1746,480.1326" style="stroke:#181818;stroke-width:1;"/><line style="stroke:#181818;stroke-width:1;" x1="242.2408" x2="282.8996" y1="464.1326" y2="464.1326"/><line style="stroke:#181818;stroke-width:1;" x1="282.8996" x2="282.8996" y1="464.1326" y2="486.1326"/><polygon fill="#181818" points="278.8996,476.1326,282.8996,486.1326,286.8996,476.1326,282.8996,480.1326" style="stroke:#181818;stroke-width:1;"/><line style="stroke:#181818;stroke-width:1;" x1="99.1746" x2="99.1746" y1="522.4767" y2="596.8208"/><line style="stroke:#181818;stroke-width:1;" x1="99.1746" x2="179.0371" y1="596.8208" y2="596.8208"/><polygon fill="#181818" points="169.0371,592.8208,179.0371,596.8208,169.0371,600.8208,173.0371,596.8208" style="stroke:#181818;stroke-width:1;"/><line style="stroke:#181818;stroke-width:1;" x1="282.8996" x2="282.8996" y1="578.8208" y2="596.8208"/><line style="stroke:#181818;stroke-width:1;" x1="282.8996" x2="203.0371" y1="596.8208" y2="596.8208"/><polygon fill="#181818" points="213.0371,592.8208,203.0371,596.8208,213.0371,600.8208,209.0371,596.8208" style="stroke:#181818;stroke-width:1;"/><line style="stroke:#181818;stroke-width:1;" x1="191.0371" x2="191.0371" y1="432.1326" y2="452.1326"/><polygon fill="#181818" points="187.0371,442.1326,191.0371,452.1326,195.0371,442.1326,191.0371,446.1326" style="stroke:#181818;stroke-width:1;"/><line style="stroke:#181818;stroke-width:1;" x1="191.0371" x2="191.0371" y1="608.8208" y2="628.8208"/><polygon fill="#181818" points="187.0371,618.8208,191.0371,628.8208,195.0371,618.8208,191.0371,622.8208" style="stroke:#181818;stroke-width:1;"/><line style="stroke:#181818;stroke-width:1;" x1="191.0371" x2="191.0371" y1="665.1649" y2="685.1649"/><polygon fill="#181818" points="187.0371,675.1649,191.0371,685.1649,195.0371,675.1649,191.0371,679.1649" style="stroke:#181818;stroke-width:1;"/><!--SRC=[ZP71IiD048Rl-nHpQulu0YaYBQ4GL2XgRrusoMmpTZ8RiXCAVHdVmfEtl9YRYc9C3vuMPlx_c_zdbPGHTW5Ro4InjOMI5zYmFoQmnj0L5LGafyxr7tiKOuBQLaroTXoOYeF25To9RzpI95C3F24fGl_kdA14IIPDfmbiY6kD6ruQyL7GqhwAurMdll1rmnXdEUv9H8qX1_F102IGhcyNe5Kapr_jmYJdkUr2N03RydnZorRL-RQ-cR4lBC-Wa_951kbrbiBfIA68XD0WnRUD5kI0C1Sa-KR6KyyFQGwhRGP3gRzWhSly7rmfoNqLM1ENi7kylrJYPpSkCahrspzDDgR3DCAblx5vpCk4_Tl02EeRyma0]--></g></svg>