<svg xmlns="http://www.w3.org/2000/svg" xmlns:xlink="http://www.w3.org/1999/xlink" contentStyleType="text/css" data-diagram-type="CLASS" height="640px" preserveAspectRatio="none" style="width:864px;height:640px;background:#FFFFFF;" version="1.1" viewBox="0 0 864 640" width="864px" zoomAndPan="magnify"><defs/><g><!--class besuche--><g class="entity" data-entity="besuche" data-source-line="3" data-uid="ent0002" id="entity_besuche"><rect fill="#F1F1F1" height="257.7471" rx="2.5" ry="2.5" style="stroke:#181818;stroke-width:0.5;" width="274.975" x="254.42" y="375.4"/><ellipse cx="360.0916" cy="391.4" fill="#ADD1B2" rx="11" ry="11" style="stroke:#181818;stroke-width:1;"/><path d="M356.451,397.9 L356.451,385.7594 L364.1072,385.7594 L364.1072,387.8844 L358.826,387.8844 L358.826,390.5406 L363.8416,390.5406 L363.8416,392.6656 L358.826,392.6656 L358.826,395.775 L364.1072,395.775 L364.1072,397.9 L356.451,397.9 Z " fill="#000000"/><text fill="#000000" font-family="sans-serif" font-size="14" lengthAdjust="spacing" textLength="55.1318" x="380.5916" y="396.832">besuche</text><line style="stroke:#181818;stroke-width:0.5;" x1="255.42" x2="528.395" y1="407.4" y2="407.4"/><ellipse cx="265.42" cy="422.434" fill="#000000" rx="3" ry="3" style="stroke:#000000;stroke-width:1;"/><text fill="#000000" font-family="sans-serif" font-size="14" lengthAdjust="spacing" textLength="40.5718" x="274.42" y="426.3659">id : int</text><text fill="#000000" font-family="sans-serif" font-size="14" lengthAdjust="spacing" textLength="116.5356" x="274.42" y="445.4339">anfang : datetime</text><text fill="#000000" font-family="sans-serif" font-size="14" lengthAdjust="spacing" textLength="103.1516" x="274.42" y="464.5018">ende : datetime</text><text fill="#000000" font-family="sans-serif" font-size="14" lengthAdjust="spacing" textLength="73.8777" x="274.42" y="483.5697">reihe : char</text><text fill="#000000" font-family="sans-serif" font-size="14" lengthAdjust="spacing" textLength="84.5177" x="274.42" y="502.6376">platz : tinyint</text><text fill="#000000" font-family="sans-serif" font-size="14" lengthAdjust="spacing" textLength="125.8595" x="274.42" y="521.7055">untertitel : boolean</text><text fill="#000000" font-family="sans-serif" font-size="14" lengthAdjust="spacing" textLength="248.975" x="274.42" y="540.7734">snackzuschlag_chf : decimal [nullable]</text><text fill="#000000" font-family="sans-serif" font-size="14" lengthAdjust="spacing" textLength="71.9177" x="274.42" y="559.8414">film_id : int</text><text fill="#000000" font-family="sans-serif" font-size="14" lengthAdjust="spacing" textLength="132.9435" x="274.42" y="578.9093">typ_id : int [nullable]</text><text fill="#000000" font-family="sans-serif" font-size="14" lengthAdjust="spacing" textLength="99.0076" x="274.42" y="597.9772">sprache_id : int</text><text fill="#000000" font-family="sans-serif" font-size="14" lengthAdjust="spacing" textLength="72.8137" x="274.42" y="617.0451">saal_id : int</text><line style="stroke:#181818;stroke-width:0.5;" x1="255.42" x2="528.395" y1="625.1471" y2="625.1471"/></g><!--class filme--><g class="entity" data-entity="filme" data-source-line="17" data-uid="ent0003" id="entity_filme"><rect fill="#F1F1F1" height="105.2038" rx="2.5" ry="2.5" style="stroke:#181818;stroke-width:0.5;" width="125.8056" x="7" y="191.2"/><ellipse cx="49.3509" cy="207.2" fill="#ADD1B2" rx="11" ry="11" style="stroke:#181818;stroke-width:1;"/><path d="M45.7103,213.7 L45.7103,201.5594 L53.3665,201.5594 L53.3665,203.6844 L48.0853,203.6844 L48.0853,206.3406 L53.1009,206.3406 L53.1009,208.4656 L48.0853,208.4656 L48.0853,211.575 L53.3665,211.575 L53.3665,213.7 L45.7103,213.7 Z " fill="#000000"/><text fill="#000000" font-family="sans-serif" font-size="14" lengthAdjust="spacing" textLength="33.0259" x="69.4289" y="212.632">filme</text><line style="stroke:#181818;stroke-width:0.5;" x1="8" x2="131.8056" y1="223.2" y2="223.2"/><ellipse cx="18" cy="238.234" fill="#000000" rx="3" ry="3" style="stroke:#000000;stroke-width:1;"/><text fill="#000000" font-family="sans-serif" font-size="14" lengthAdjust="spacing" textLength="40.5718" x="27" y="242.1659">id : int</text><text fill="#000000" font-family="sans-serif" font-size="14" lengthAdjust="spacing" textLength="99.8056" x="27" y="261.2339">filmtitel : string</text><text fill="#000000" font-family="sans-serif" font-size="14" lengthAdjust="spacing" textLength="73.8917" x="27" y="280.3018">bild : string</text><line style="stroke:#181818;stroke-width:0.5;" x1="8" x2="131.8056" y1="288.4038" y2="288.4038"/></g><!--class typen--><g class="entity" data-entity="typen" data-source-line="23" data-uid="ent0004" id="entity_typen"><rect fill="#F1F1F1" height="105.2038" rx="2.5" ry="2.5" style="stroke:#181818;stroke-width:0.5;" width="237.5672" x="168.12" y="191.2"/><ellipse cx="263.9777" cy="207.2" fill="#ADD1B2" rx="11" ry="11" style="stroke:#181818;stroke-width:1;"/><path d="M260.337,213.7 L260.337,201.5594 L267.9933,201.5594 L267.9933,203.6844 L262.712,203.6844 L262.712,206.3406 L267.7277,206.3406 L267.7277,208.4656 L262.712,208.4656 L262.712,211.575 L267.9933,211.575 L267.9933,213.7 L260.337,213.7 Z " fill="#000000"/><text fill="#000000" font-family="sans-serif" font-size="14" lengthAdjust="spacing" textLength="37.3519" x="284.4777" y="212.632">typen</text><line style="stroke:#181818;stroke-width:0.5;" x1="169.12" x2="404.6872" y1="223.2" y2="223.2"/><ellipse cx="179.12" cy="238.234" fill="#000000" rx="3" ry="3" style="stroke:#000000;stroke-width:1;"/><text fill="#000000" font-family="sans-serif" font-size="14" lengthAdjust="spacing" textLength="40.5718" x="188.12" y="242.1659">id : int</text><text fill="#000000" font-family="sans-serif" font-size="14" lengthAdjust="spacing" textLength="86.9397" x="188.12" y="261.2339">name : string</text><text fill="#000000" font-family="sans-serif" font-size="14" lengthAdjust="spacing" textLength="211.5672" x="188.12" y="280.3018">zuschlag_chf : decimal [nullable]</text><line style="stroke:#181818;stroke-width:0.5;" x1="169.12" x2="404.6872" y1="288.4038" y2="288.4038"/></g><!--class sprachen--><g class="entity" data-entity="sprachen" data-source-line="29" data-uid="ent0005" id="entity_sprachen"><rect fill="#F1F1F1" height="86.1358" rx="2.5" ry="2.5" style="stroke:#181818;stroke-width:0.5;" width="112.9397" x="440.43" y="200.73"/><ellipse cx="464.4606" cy="216.73" fill="#ADD1B2" rx="11" ry="11" style="stroke:#181818;stroke-width:1;"/><path d="M460.8199,223.23 L460.8199,211.0894 L468.4762,211.0894 L468.4762,213.2144 L463.1949,213.2144 L463.1949,215.8706 L468.2106,215.8706 L468.2106,217.9956 L463.1949,217.9956 L463.1949,221.105 L468.4762,221.105 L468.4762,223.23 L460.8199,223.23 Z " fill="#000000"/><text fill="#000000" font-family="sans-serif" font-size="14" lengthAdjust="spacing" textLength="60.8718" x="480.4673" y="222.162">sprachen</text><line style="stroke:#181818;stroke-width:0.5;" x1="441.43" x2="552.3697" y1="232.73" y2="232.73"/><ellipse cx="451.43" cy="247.764" fill="#000000" rx="3" ry="3" style="stroke:#000000;stroke-width:1;"/><text fill="#000000" font-family="sans-serif" font-size="14" lengthAdjust="spacing" textLength="40.5718" x="460.43" y="251.6959">id : int</text><text fill="#000000" font-family="sans-serif" font-size="14" lengthAdjust="spacing" textLength="86.9397" x="460.43" y="270.7639">name : string</text><line style="stroke:#181818;stroke-width:0.5;" x1="441.43" x2="552.3697" y1="278.8658" y2="278.8658"/></g><!--class saele--><g class="entity" data-entity="saele" data-source-line="34" data-uid="ent0006" id="entity_saele"><rect fill="#F1F1F1" height="105.2038" rx="2.5" ry="2.5" style="stroke:#181818;stroke-width:0.5;" width="112.9397" x="588.43" y="191.2"/><ellipse cx="624.5691" cy="207.2" fill="#ADD1B2" rx="11" ry="11" style="stroke:#181818;stroke-width:1;"/><path d="M620.9285,213.7 L620.9285,201.5594 L628.5847,201.5594 L628.5847,203.6844 L623.3035,203.6844 L623.3035,206.3406 L628.3191,206.3406 L628.3191,208.4656 L623.3035,208.4656 L623.3035,211.575 L628.5847,211.575 L628.5847,213.7 L620.9285,213.7 Z " fill="#000000"/><text fill="#000000" font-family="sans-serif" font-size="14" lengthAdjust="spacing" textLength="33.9639" x="643.2667" y="212.632">saele</text><line style="stroke:#181818;stroke-width:0.5;" x1="589.43" x2="700.3697" y1="223.2" y2="223.2"/><ellipse cx="599.43" cy="238.234" fill="#000000" rx="3" ry="3" style="stroke:#000000;stroke-width:1;"/><text fill="#000000" font-family="sans-serif" font-size="14" lengthAdjust="spacing" textLength="40.5718" x="608.43" y="242.1659">id : int</text><text fill="#000000" font-family="sans-serif" font-size="14" lengthAdjust="spacing" textLength="86.9397" x="608.43" y="261.2339">name : string</text><text fill="#000000" font-family="sans-serif" font-size="14" lengthAdjust="spacing" textLength="74.9977" x="608.43" y="280.3018">kino_id : int</text><line style="stroke:#181818;stroke-width:0.5;" x1="589.43" x2="700.3697" y1="288.4038" y2="288.4038"/></g><!--class kinos--><g class="entity" data-entity="kinos" data-source-line="40" data-uid="ent0007" id="entity_kinos"><rect fill="#F1F1F1" height="105.2038" rx="2.5" ry="2.5" style="stroke:#181818;stroke-width:0.5;" width="112.9397" x="588.43" y="7"/><ellipse cx="624.1407" cy="23" fill="#ADD1B2" rx="11" ry="11" style="stroke:#181818;stroke-width:1;"/><path d="M620.5001,29.5 L620.5001,17.3594 L628.1563,17.3594 L628.1563,19.4844 L622.8751,19.4844 L622.8751,22.1406 L627.8907,22.1406 L627.8907,24.2656 L622.8751,24.2656 L622.8751,27.375 L628.1563,27.375 L628.1563,29.5 L620.5001,29.5 Z " fill="#000000"/><text fill="#000000" font-family="sans-serif" font-size="14" lengthAdjust="spacing" textLength="34.9159" x="642.7431" y="28.432">kinos</text><line style="stroke:#181818;stroke-width:0.5;" x1="589.43" x2="700.3697" y1="39" y2="39"/><ellipse cx="599.43" cy="54.034" fill="#000000" rx="3" ry="3" style="stroke:#000000;stroke-width:1;"/><text fill="#000000" font-family="sans-serif" font-size="14" lengthAdjust="spacing" textLength="40.5718" x="608.43" y="57.9659">id : int</text><text fill="#000000" font-family="sans-serif" font-size="14" lengthAdjust="spacing" textLength="68.7538" x="608.43" y="77.0339">ort : string</text><text fill="#000000" font-family="sans-serif" font-size="14" lengthAdjust="spacing" textLength="86.9397" x="608.43" y="96.1018">name : string</text><line style="stroke:#181818;stroke-width:0.5;" x1="589.43" x2="700.3697" y1="104.2038" y2="104.2038"/></g><!--class einstellungen--><g class="entity" data-entity="einstellungen" data-source-line="46" data-uid="ent0008" id="entity_einstellungen"><rect fill="#F1F1F1" height="86.1358" rx="2.5" ry="2.5" style="stroke:#181818;stroke-width:0.5;" width="121.5016" x="736.15" y="16.53"/><ellipse cx="751.15" cy="32.53" fill="#ADD1B2" rx="11" ry="11" style="stroke:#181818;stroke-width:1;"/><path d="M747.5094,39.03 L747.5094,26.8894 L755.1656,26.8894 L755.1656,29.0144 L749.8844,29.0144 L749.8844,31.6706 L754.9,31.6706 L754.9,33.7956 L749.8844,33.7956 L749.8844,36.905 L755.1656,36.905 L755.1656,39.03 L747.5094,39.03 Z " fill="#000000"/><text fill="#000000" font-family="sans-serif" font-size="14" lengthAdjust="spacing" textLength="89.5016" x="765.15" y="37.962">einstellungen</text><line style="stroke:#181818;stroke-width:0.5;" x1="737.15" x2="856.6516" y1="48.53" y2="48.53"/><ellipse cx="747.15" cy="63.564" fill="#000000" rx="3" ry="3" style="stroke:#000000;stroke-width:1;"/><text fill="#000000" font-family="sans-serif" font-size="14" lengthAdjust="spacing" textLength="71.9597" x="756.15" y="67.4959">key : string</text><ellipse cx="747.15" cy="82.6319" fill="#000000" rx="3" ry="3" style="stroke:#000000;stroke-width:1;"/><text fill="#000000" font-family="sans-serif" font-size="14" lengthAdjust="spacing" textLength="84.5737" x="756.15" y="86.5639">value : string</text><line style="stroke:#181818;stroke-width:0.5;" x1="737.15" x2="856.6516" y1="94.6658" y2="94.6658"/></g><!--link filme to besuche--><g class="link" data-entity-1="filme" data-entity-2="besuche" data-source-line="52" data-uid="lnk9" id="link_filme_besuche"><path codeLine="52" d="M139.378,300.5688 C173.988,328.3588 198.0322,347.6532 240.1822,381.4832" fill="none" id="filme-besuche" style="stroke:#181818;stroke-width:1;"/><line style="stroke:#181818;stroke-width:1;" x1="133.7546" x2="138.7634" y1="301.1834" y2="294.9454"/><line style="stroke:#181818;stroke-width:1;" x1="136.0938" x2="141.1026" y1="303.0617" y2="296.8237"/><line style="stroke:#181818;stroke-width:1;" x1="139.378" x2="133.14" y1="300.5688" y2="295.56"/><line style="stroke:#181818;stroke-width:1;" x1="247.981" x2="257.9756" y1="387.7425" y2="388.0707"/><line style="stroke:#181818;stroke-width:1;" x1="247.981" x2="250.4644" y1="387.7425" y2="397.4293"/><line style="stroke:#181818;stroke-width:1;" x1="247.981" x2="254.22" y1="387.7425" y2="392.75"/><ellipse cx="243.3017" cy="383.9869" fill="none" rx="4" ry="4" style="stroke:#181818;stroke-width:1;"/><text fill="#000000" font-family="sans-serif" font-size="13" lengthAdjust="spacing" textLength="40.456" x="193.59" y="341.297">film_id</text></g><!--link typen to besuche--><g class="link" data-entity-1="typen" data-entity-2="besuche" data-source-line="53" data-uid="lnk10" id="link_typen_besuche"><path codeLine="53" d="M311.0337,304.2106 C320.2937,326.9806 321.806,330.7233 333.086,358.4933" fill="none" id="typen-besuche" style="stroke:#181818;stroke-width:1;"/><line style="stroke:#181818;stroke-width:1;" x1="305.8215" x2="313.2322" y1="302.0122" y2="298.9985"/><line style="stroke:#181818;stroke-width:1;" x1="306.9517" x2="314.3623" y1="304.7912" y2="301.7774"/><line style="stroke:#181818;stroke-width:1;" x1="311.0337" x2="308.02" y1="304.2106" y2="296.8"/><line style="stroke:#181818;stroke-width:1;" x1="336.8493" x2="345.4189" y1="367.7581" y2="372.912"/><line style="stroke:#181818;stroke-width:1;" x1="336.8493" x2="334.3011" y1="367.7581" y2="377.428"/><line style="stroke:#181818;stroke-width:1;" x1="336.8493" x2="339.86" y1="367.7581" y2="375.17"/><ellipse cx="334.5913" cy="362.1992" fill="none" rx="4" ry="4" style="stroke:#181818;stroke-width:1;"/><text fill="#000000" font-family="sans-serif" font-size="13" lengthAdjust="spacing" textLength="36.439" x="327.91" y="341.297">typ_id</text></g><!--link sprachen to besuche--><g class="link" data-entity-1="sprachen" data-entity-2="besuche" data-source-line="54" data-uid="lnk11" id="link_sprachen_besuche"><path codeLine="54" d="M476.67,294.6021 C466.81,318.8821 463.6453,326.6738 450.7253,358.4738" fill="none" id="sprachen-besuche" style="stroke:#181818;stroke-width:1;"/><line style="stroke:#181818;stroke-width:1;" x1="474.4689" x2="481.881" y1="289.391" y2="292.4011"/><line style="stroke:#181818;stroke-width:1;" x1="473.3402" x2="480.7523" y1="292.1706" y2="295.1806"/><line style="stroke:#181818;stroke-width:1;" x1="476.67" x2="479.68" y1="294.6021" y2="287.19"/><line style="stroke:#181818;stroke-width:1;" x1="446.9613" x2="449.5087" y1="367.7384" y2="377.4084"/><line style="stroke:#181818;stroke-width:1;" x1="446.9613" x2="438.3913" y1="367.7384" y2="372.8916"/><line style="stroke:#181818;stroke-width:1;" x1="446.9613" x2="443.95" y1="367.7384" y2="375.15"/><ellipse cx="449.2197" cy="362.1796" fill="none" rx="4" ry="4" style="stroke:#181818;stroke-width:1;"/><text fill="#000000" font-family="sans-serif" font-size="13" lengthAdjust="spacing" textLength="65.6111" x="463.94" y="341.297">sprache_id</text></g><!--link saele to besuche--><g class="link" data-entity-1="saele" data-entity-2="besuche" data-source-line="55" data-uid="lnk12" id="link_saele_besuche"><path codeLine="55" d="M588.4124,302.5155 C566.1124,325.2855 557.0582,334.5338 529.8882,362.3038" fill="none" id="saele-besuche" style="stroke:#181818;stroke-width:1;"/><line style="stroke:#181818;stroke-width:1;" x1="588.3535" x2="594.069" y1="296.859" y2="302.4565"/><line style="stroke:#181818;stroke-width:1;" x1="586.2544" x2="591.9699" y1="299.0023" y2="304.5999"/><line style="stroke:#181818;stroke-width:1;" x1="588.4124" x2="594.01" y1="302.5155" y2="296.8"/><line style="stroke:#181818;stroke-width:1;" x1="522.8947" x2="521.5887" y1="369.4517" y2="379.3661"/><line style="stroke:#181818;stroke-width:1;" x1="522.8947" x2="513.0113" y1="369.4517" y2="370.9739"/><line style="stroke:#181818;stroke-width:1;" x1="522.8947" x2="517.3" y1="369.4517" y2="375.17"/><ellipse cx="527.0908" cy="365.163" fill="none" rx="4" ry="4" style="stroke:#181818;stroke-width:1;"/><text fill="#000000" font-family="sans-serif" font-size="13" lengthAdjust="spacing" textLength="41.288" x="564.07" y="341.297">saal_id</text></g><!--link kinos to saele--><g class="link" data-entity-1="kinos" data-entity-2="saele" data-source-line="56" data-uid="lnk13" id="link_kinos_saele"><path codeLine="56" d="M644.9,120.32 C644.9,144.94 644.9,148.31 644.9,172.95" fill="none" id="kinos-saele" style="stroke:#181818;stroke-width:1;"/><line style="stroke:#181818;stroke-width:1;" x1="640.9" x2="648.9" y1="116.32" y2="116.32"/><line style="stroke:#181818;stroke-width:1;" x1="640.9" x2="648.9" y1="119.32" y2="119.32"/><line style="stroke:#181818;stroke-width:1;" x1="644.9" x2="644.9" y1="120.32" y2="112.32"/><line style="stroke:#181818;stroke-width:1;" x1="644.9" x2="650.9" y1="182.95" y2="190.95"/><line style="stroke:#181818;stroke-width:1;" x1="644.9" x2="638.9" y1="182.95" y2="190.95"/><line style="stroke:#181818;stroke-width:1;" x1="644.9" x2="644.9" y1="182.95" y2="190.95"/><ellipse cx="644.9" cy="176.95" fill="none" rx="4" ry="4" style="stroke:#181818;stroke-width:1;"/><text fill="#000000" font-family="sans-serif" font-size="13" lengthAdjust="spacing" textLength="43.316" x="645.9" y="157.097">kino_id</text></g><!--SRC=[ZP9DReD038NtSuhPHOgK2sJV2tHRLP410nR686QeH9BUlVCJc1Aecgp8P_jXFzv1luabIsWK-eT9PsZ6l4PzKzhzZbJeioQnuHz82L8vK815Ioq6YbBWCnkGQW_p6eO0UWPxTS2IJBFSA1O7zr9aLyYwZX4a58n0tbn7azSCrIMlIo-FERN0-aD6PiWOFqDhITnULalQgL_0SxVf1t37hGSC02VohMOdlFI-3xuoxstiG585d14NYIGXjn7Ahf10YskD_wzEkezhNf7-DGJ8-E8o3KctvupdPbUZ6-nQugyraCGu0tcKAXtGuBIUFdu1Z-lvWtv7boNgnDJK6nM_qlr-EdMt9RpdEHSgUhyfnv2enS5DGqgAYevjEs9iL3JZKOwzvzavzGC0]--></g></svg>